<?xml version="1.0" standalone="no"?>
<!DOCTYPE svg PUBLIC "-//W3C//DTD SVG 20010904//EN"
 "http://www.w3.org/TR/2001/REC-SVG-20010904/DTD/svg10.dtd">
<svg version="1.0" xmlns="http://www.w3.org/2000/svg"
 width="1200.000000pt" height="1200.000000pt" viewBox="0 0 1200.000000 1200.000000"
 preserveAspectRatio="xMidYMid meet">
<metadata>
Created by potrace 1.11, written by Peter Selinger 2001-2013
</metadata>
<g transform="translate(0.000000,1200.000000) scale(0.100000,-0.100000)"
fill="#000000" stroke="none">
<path d="M8800 10960 c-23 -5 -20 0 -270 -620 -56 -140 -108 -268 -116 -285
-7 -16 -49 -122 -94 -235 -45 -113 -88 -218 -95 -235 -7 -16 -41 -100 -75
-185 -34 -85 -68 -168 -75 -185 -7 -16 -26 -64 -43 -105 -46 -117 -133 -333
-142 -355 -14 -30 -51 -123 -124 -305 -37 -91 -71 -174 -76 -185 -5 -11 -57
-139 -115 -285 -58 -146 -110 -274 -115 -285 -5 -11 -24 -56 -41 -100 -17 -44
-36 -91 -42 -105 -5 -14 -11 -29 -13 -35 -2 -5 -51 -127 -109 -270 -59 -143
-109 -267 -112 -275 -3 -8 -21 -51 -39 -95 -17 -44 -123 -305 -233 -580 -111
-275 -206 -509 -211 -520 -5 -11 -43 -103 -84 -205 -40 -102 -127 -315 -191
-475 -65 -159 -135 -335 -157 -390 -22 -55 -46 -113 -53 -130 -8 -16 -57 -138
-110 -270 -52 -132 -100 -249 -105 -260 -15 -33 -280 -694 -280 -700 0 -3 268
-4 596 -3 l596 3 17 45 c10 25 80 198 156 385 75 187 162 401 191 475 30 74
59 144 64 155 5 11 52 128 106 260 53 132 161 400 239 595 79 195 203 501 275
680 72 179 137 339 145 355 7 17 25 60 39 98 14 37 32 82 39 100 8 17 33 78
56 134 23 56 46 115 53 130 6 15 12 30 13 33 4 12 22 56 80 200 35 85 134 331
220 545 86 215 163 404 170 420 7 17 36 89 65 160 28 72 55 139 60 150 5 11
35 83 66 160 31 77 116 289 189 470 73 182 154 382 179 445 26 63 51 124 56
135 5 11 66 162 136 335 69 173 159 396 199 495 246 608 285 708 280 713 -7 7
-1135 9 -1165 2z"/>
<path d="M5080 7739 c0 -10 -4 -20 -9 -23 -5 -3 -12 -17 -15 -31 -4 -14 -18
-50 -31 -80 -14 -29 -25 -60 -25 -67 0 -8 -4 -18 -9 -23 -4 -6 -24 -50 -43
-100 -34 -85 -139 -346 -157 -390 -12 -29 -21 -51 -157 -390 -69 -170 -129
-319 -134 -330 -5 -11 -39 -93 -75 -182 -35 -88 -70 -174 -77 -190 -6 -15 -12
-30 -13 -33 -5 -15 -18 -48 -26 -65 -4 -11 -29 -72 -55 -135 -25 -63 -81 -203
-125 -310 -43 -107 -155 -384 -248 -615 l-169 -420 591 -3 c325 -1 594 1 598
5 4 5 51 116 104 248 53 132 100 249 105 260 12 26 160 392 280 690 50 127 98
244 105 260 7 17 27 66 45 110 95 240 324 804 336 827 8 15 14 29 14 30 -2 5
10 37 48 128 73 181 306 757 323 801 l18 46 -600 -1 c-563 0 -599 -1 -599 -17z"/>
<path d="M2309 6670 c-5 -14 -14 -34 -19 -45 -5 -11 -66 -162 -136 -335 -221
-552 -255 -635 -264 -655 -5 -11 -52 -126 -104 -255 -122 -305 -381 -948 -405
-1005 -5 -11 -16 -38 -25 -60 -105 -264 -198 -493 -206 -507 -19 -33 -12 -48
23 -48 45 -1 1130 -1 1142 -1 11 1 17 12 75 161 23 58 48 119 55 135 8 17 23
53 33 80 39 101 124 311 143 352 10 24 19 47 19 53 0 6 4 18 10 28 10 19 7 10
175 427 64 160 146 362 181 450 36 88 69 169 74 180 5 11 19 45 30 75 11 30
25 64 30 75 5 11 39 94 75 185 36 91 70 174 75 185 5 11 32 79 61 150 28 72
57 144 64 160 15 33 95 234 95 238 0 1 -268 2 -596 2 l-596 0 -9 -25z"/>
<path d="M8401 3781 c-8 -15 -250 -612 -313 -771 -17 -41 -36 -88 -43 -105 -7
-16 -41 -100 -75 -185 -34 -85 -68 -168 -75 -185 -7 -16 -37 -88 -65 -160 -75
-187 -310 -770 -369 -915 -28 -67 -51 -124 -51 -126 0 -2 269 -3 597 -2 l597
3 77 190 c42 105 143 354 224 555 81 201 156 384 166 407 10 23 19 46 19 51 0
5 12 36 26 68 14 33 30 68 34 79 5 11 41 101 80 200 39 99 78 194 85 210 7 17
50 122 95 235 45 113 88 219 95 235 7 17 23 55 35 85 12 30 30 76 40 101 l18
45 -594 1 c-533 0 -596 -2 -603 -16z"/>
</g>
</svg>
